<svg width="675" height="104" viewBox="0 0 675 104" fill="none" xmlns="http://www.w3.org/2000/svg">
<path d="M67.424 2.05801V4.116C58.016 4.116 57.232 5.488 57.232 11.466V81.83H53.998L13.524 15.68V71.05C13.524 77.028 14.406 78.4 23.912 78.4V80.458H-2.18339e-05V78.4C9.30998 78.4 10.192 77.028 10.192 71.05V10.29L10.094 10.094C6.85998 4.90001 4.60598 4.116 -2.18339e-05 4.116V2.05801H12.348L53.704 70.07H53.802V11.466C53.802 5.488 53.018 4.116 43.61 4.116V2.05801H67.424ZM72.6877 15.582C69.9437 15.582 67.8857 13.524 67.8857 10.976C67.8857 8.33 69.9437 6.37 72.6877 6.37C75.3337 6.37 77.3917 8.33 77.3917 10.976C77.3917 13.524 75.3337 15.582 72.6877 15.582ZM76.3137 28.322V71.05C76.3137 77.126 76.9997 78.4 82.7817 78.4V80.458H64.4557V78.4C70.1397 78.4 70.9237 77.126 70.9237 71.05V38.416C70.9237 32.242 70.9237 31.164 65.4357 33.32L64.6517 31.36L71.8057 28.518L75.1377 27.244L76.3137 28.322ZM101.049 82.026C90.8567 82.026 85.0747 70.756 85.0747 55.37C85.0747 39.592 91.1507 27.244 102.421 27.244C109.869 27.244 114.377 32.732 114.377 39.298C114.377 42.924 113.005 44.884 110.457 44.884C108.105 44.884 107.125 43.218 107.125 41.454C107.125 39.984 107.811 38.122 107.811 36.064C107.811 32.536 105.753 30.576 102.323 30.576C94.0907 30.576 90.7587 42.042 90.7587 53.312C90.7587 66.248 95.0707 76.93 102.813 76.93C107.027 76.93 112.221 73.206 113.887 59.584H115.945C115.063 75.362 108.497 82.026 101.049 82.026ZM127.937 39.886V71.05C127.937 77.126 128.623 78.4 134.111 78.4V80.458H116.177V78.4C121.763 78.4 122.547 77.126 122.547 71.05L122.449 11.368C122.449 5.29201 122.645 4.214 116.961 6.86L116.079 4.998L123.429 1.568L126.957 3.93391e-06L127.937 1.078V36.554H128.231C132.445 31.066 136.365 27.244 142.245 27.244C149.203 27.244 152.045 32.536 152.045 40.474V71.05C152.045 77.126 152.731 78.4 158.415 78.4V80.458H140.579V78.4C146.067 78.4 146.753 77.126 146.753 71.05V40.768C146.753 34.79 144.205 32.144 140.285 32.144C135.581 32.144 131.759 35.378 127.937 39.886ZM189.375 59.78H191.433C189.865 75.362 183.495 82.026 175.655 82.026C165.561 82.026 159.681 70.952 159.681 55.468C159.681 39.886 165.757 27.244 176.047 27.244C185.455 27.244 190.845 37.142 190.845 51.744H165.365V53.606C165.365 66.444 169.677 77.028 177.419 77.028C181.927 77.028 187.121 73.206 189.375 59.78ZM176.145 30.576C169.775 30.576 166.443 38.808 165.561 48.412H185.063C185.063 39.494 182.711 30.576 176.145 30.576ZM235.49 80.458H211.186V78.4C220.496 78.4 221.378 77.028 221.378 71.05V11.466C221.378 5.488 220.496 4.116 211.186 4.116V2.05801H234.118C255.482 2.05801 272.632 16.366 272.632 41.944C272.632 65.758 257.638 80.458 235.49 80.458ZM234.608 77.126C256.462 77.126 266.164 61.152 266.164 42.336C266.164 20.188 252.738 5.39 235 5.39C232.452 5.39 230.394 5.68401 229.512 5.88C228.14 6.17401 227.454 7.15401 227.454 8.52601V72.912C227.454 76.342 230.002 77.126 234.608 77.126ZM306.213 59.78H308.271C306.703 75.362 300.333 82.026 292.493 82.026C282.399 82.026 276.519 70.952 276.519 55.468C276.519 39.886 282.595 27.244 292.885 27.244C302.293 27.244 307.683 37.142 307.683 51.744H282.203V53.606C282.203 66.444 286.515 77.028 294.257 77.028C298.765 77.028 303.959 73.206 306.213 59.78ZM292.983 30.576C286.613 30.576 283.281 38.808 282.399 48.412H301.901C301.901 39.494 299.549 30.576 292.983 30.576ZM327.718 82.026C323.406 82.026 319.976 80.066 318.114 78.596C316.84 77.616 316.056 77.91 315.566 79.086L314.88 81.046H312.92L312.43 60.466H314.292C315.566 72.814 321.054 78.694 327.326 78.694C332.226 78.694 334.774 74.97 334.774 69.482C334.774 64.484 332.52 62.426 323.602 54.586C315.762 47.824 313.018 44.492 313.018 39.2C313.018 32.242 317.82 27.244 324.778 27.244C328.894 27.244 331.638 29.106 333.206 30.478C334.48 31.654 335.46 31.164 335.656 29.988L336.048 27.93H338.008L338.204 44.394H336.244C335.46 36.75 331.736 30.576 325.17 30.576C320.956 30.576 317.918 33.614 317.918 38.122C317.918 42.63 320.858 45.178 327.228 50.568C335.95 58.016 339.772 62.132 339.772 68.894C339.772 77.616 334.186 82.026 327.718 82.026ZM350.728 15.582C347.984 15.582 345.926 13.524 345.926 10.976C345.926 8.33 347.984 6.37 350.728 6.37C353.374 6.37 355.432 8.33 355.432 10.976C355.432 13.524 353.374 15.582 350.728 15.582ZM354.354 28.322V71.05C354.354 77.126 355.04 78.4 360.822 78.4V80.458H342.496V78.4C348.18 78.4 348.964 77.126 348.964 71.05V38.416C348.964 32.242 348.964 31.164 343.476 33.32L342.692 31.36L349.846 28.518L353.178 27.244L354.354 28.322ZM379.185 74.382H389.279C399.177 74.382 403.489 76.734 403.489 83.986C403.489 93.786 393.003 103.586 378.009 103.586C368.601 103.586 360.271 99.96 360.271 91.728C360.271 85.456 364.877 81.732 370.071 78.694C366.249 77.322 364.877 74.676 364.877 71.54C364.877 67.718 367.523 64.582 371.247 61.74C367.327 58.408 365.073 53.018 365.073 46.354C365.073 35.28 371.345 27.342 380.851 27.342C384.085 27.342 386.927 28.224 389.279 29.89C393.003 28.028 396.727 27.048 399.863 27.048C402.117 27.048 402.607 28.028 402.607 29.302C402.607 30.772 401.529 31.752 399.373 31.752C396.041 31.752 393.689 30.968 391.043 31.458C394.473 34.79 396.531 39.984 396.531 46.256C396.531 57.33 390.259 65.17 380.851 65.17C377.911 65.17 375.265 64.386 373.109 63.112C370.757 65.17 369.287 66.934 369.287 69.188C369.287 71.834 369.679 74.382 379.185 74.382ZM379.773 30.478C373.305 30.478 370.757 37.142 370.757 44.1C370.757 52.136 373.795 62.034 381.929 62.034C388.005 62.034 390.847 56.546 390.847 49C390.847 40.572 387.515 30.478 379.773 30.478ZM379.283 98.98C391.925 98.98 399.667 92.022 399.667 85.652C399.667 80.948 396.727 79.87 389.181 79.87H378.695C376.539 79.87 374.677 79.772 373.109 79.478C368.699 82.32 364.975 85.946 364.975 90.062C364.975 94.766 369.483 98.98 379.283 98.98ZM402.749 80.458V78.4C408.335 78.4 409.119 77.126 409.119 71.05V38.416C409.119 32.242 409.217 31.164 403.435 33.516L402.651 31.556L413.235 27.244L414.509 28.322V36.554H414.803C419.017 31.066 422.937 27.244 428.817 27.244C435.775 27.244 438.715 32.536 438.715 40.474V71.05C438.715 77.126 439.401 78.4 444.987 78.4V80.458H427.151V78.4C432.639 78.4 433.325 77.126 433.325 71.05V40.768C433.325 34.888 430.875 32.144 426.857 32.144C422.153 32.144 418.429 35.378 414.509 39.886V71.05C414.509 77.126 415.195 78.4 420.683 78.4V80.458H402.749ZM486.493 82.026C480.907 82.026 475.713 79.282 471.989 75.264C470.225 73.402 469.245 73.402 468.755 75.95L467.971 80.556H465.815L465.913 52.234H468.069C468.755 68.012 476.301 78.694 486.493 78.694C495.803 78.694 499.723 71.05 499.723 64.386C499.723 54.39 491.883 48.314 483.651 42.042C474.733 35.28 466.403 28.812 466.403 17.738C466.403 7.35 473.655 0.490003 484.141 0.490003C489.139 0.490003 492.863 1.96 496.489 5.488C498.057 6.958 499.429 6.56601 499.625 4.508L500.017 1.47H502.075L503.349 26.95H501.291C500.017 13.72 494.627 3.822 484.141 3.822C476.203 3.822 471.891 9.702 471.891 16.562C471.891 25.284 478.555 30.772 486.885 37.044C496.195 44.002 505.113 50.862 505.113 63.112C505.113 73.794 497.861 82.026 486.493 82.026ZM530.769 59.584H533.023C533.023 73.892 530.671 82.026 522.243 82.026C515.579 82.026 512.345 77.616 512.345 64.582V32.242H505.289V29.4C512.247 29.302 514.893 23.52 515.285 15.092H517.735V28.91H529.691V32.242H517.833V61.152C517.833 70.658 518.323 77.42 523.713 77.42C528.417 77.42 530.769 71.834 530.769 59.584ZM565.015 81.928L563.741 80.85L563.545 73.01L563.251 72.912C560.213 77.714 555.117 82.026 549.139 82.026C542.769 82.026 539.829 76.636 539.829 68.894V39.102C539.829 33.026 539.829 31.948 533.949 34.006L533.263 32.046L544.239 28.224L545.317 29.302V68.208C545.317 74.284 547.375 77.224 551.295 77.224C555.607 77.224 560.213 73.794 563.545 69.58V39.102C563.545 33.026 563.545 31.948 557.665 34.006L556.979 32.046L567.955 28.224L569.033 29.302V70.756C569.033 76.93 568.935 78.008 574.913 75.46L575.697 77.42L567.955 80.654L565.015 81.928ZM614.625 75.46L615.507 77.322L604.727 82.026L603.355 80.85V73.01H602.963C600.611 78.4 596.593 82.026 590.713 82.026C581.403 82.026 576.503 70.658 576.503 56.056C576.503 40.474 582.187 27.244 592.771 27.244C597.573 27.244 601.101 29.204 603.257 32.634H603.355V11.368C603.355 5.29201 603.551 4.214 597.671 6.86L596.789 4.998L607.863 3.93391e-06L608.843 1.078V70.756C608.843 76.93 608.745 78.008 614.625 75.46ZM592.575 77.126C597.867 77.126 600.905 72.912 603.355 68.502V49C603.355 38.416 599.925 31.066 593.457 31.066C585.323 31.066 582.383 42.532 582.383 53.998C582.383 67.13 585.519 77.126 592.575 77.126ZM625.419 15.582C622.675 15.582 620.617 13.524 620.617 10.976C620.617 8.33 622.675 6.37 625.419 6.37C628.065 6.37 630.123 8.33 630.123 10.976C630.123 13.524 628.065 15.582 625.419 15.582ZM629.045 28.322V71.05C629.045 77.126 629.731 78.4 635.513 78.4V80.458H617.187V78.4C622.871 78.4 623.655 77.126 623.655 71.05V38.416C623.655 32.242 623.655 31.164 618.167 33.32L617.383 31.36L624.537 28.518L627.869 27.244L629.045 28.322ZM656.23 82.026C645.352 82.026 637.806 70.266 637.806 54.88C637.806 39.69 644.47 27.244 656.23 27.244C667.01 27.244 674.556 39.004 674.556 54.39C674.556 69.58 667.892 82.026 656.23 82.026ZM657.504 78.596C665.442 78.596 668.872 68.502 668.872 58.604C668.872 45.276 664.266 30.674 654.956 30.674C646.92 30.674 643.49 40.768 643.49 50.764C643.49 64.092 648.096 78.596 657.504 78.596Z" fill="#1c1917"/>
</svg>
