<?xml version="1.0" encoding="UTF-8"?>
<svg id="Layer_2" xmlns="http://www.w3.org/2000/svg" version="1.1" viewBox="0 0 165.7 80.5">
  <!-- Generator: Adobe Illustrator 30.0.0, SVG Export Plug-In . SVG Version: 2.1.1 Build 123)  -->
  <defs>
    <style>
      .st0 {
        fill: #465566;
      }
    </style>
  </defs>
  <path class="st0" d="M64.9,3.9v1.9c-8.8,0-9.5,1.3-9.5,6.9v65.6h-3L14.6,16.6v51.6c0,5.6.8,6.9,9.7,6.9v1.9H2v-1.9c8.7,0,9.5-1.3,9.5-6.9V11.3c-3.1-4.8-5.2-5.6-9.5-5.6v-1.9h11.5l38.6,63.4h0V12.6c0-5.6-.7-6.9-9.5-6.9v-1.9h22.2Z"/>
  <path class="st0" d="M145.8,78.4c-5.2,0-10.1-2.6-13.5-6.3-1.6-1.7-2.6-1.7-3,.6l-.7,4.3h-2v-26.4h2.1c.6,14.7,7.7,24.7,17.2,24.7s12.3-7.1,12.3-13.3c0-9.3-7.3-15-15-20.8-8.3-6.3-16.1-12.3-16.1-22.7s6.8-16.1,16.5-16.1,8.1,1.4,11.5,4.7c1.5,1.4,2.7,1,2.9-.9l.4-2.8h1.9l1.2,23.8h-1.9c-1.2-12.3-6.2-21.6-16-21.6s-11.4,5.5-11.4,11.9,6.2,13.3,14,19.1c8.7,6.5,17,12.9,17,24.3s-6.8,17.6-17.4,17.6Z"/>
  <path class="st0" d="M86.3,3.9h-21.4v1.9c8.7,0,9.5,1.3,9.5,6.9v55.6c0,5.6-.8,6.9-9.5,6.9v1.9h22.7c20.7,0,34.6-13.7,34.6-35.9S106.2,3.9,86.3,3.9ZM86.8,73.9c-4.3,0-6.7-.7-6.7-3.9V9.9c0-1.3.6-2.2,1.9-2.5.8-.2,2.7-.5,5.1-.5,16.5,0,29.1,13.8,29.1,34.5s-9,32.4-29.4,32.4Z"/>
</svg>