<?xml version="1.0" encoding="UTF-8"?><svg id="Layer_2" xmlns="http://www.w3.org/2000/svg" viewBox="0 0 302.52 204.08"><defs><style>.cls-1,.cls-2{fill:#414042;}.cls-2{stroke:#414042;stroke-miterlimit:10;stroke-width:.5px;}</style></defs><g id="Layer_1-2"><path class="cls-2" d="M30.44,159.04v.91c-4.21,0-4.56.61-4.56,3.24v31.04h-1.45l-18.12-29.18v24.43c0,2.64.39,3.24,4.65,3.24v.91H.25v-.91c4.17,0,4.56-.61,4.56-3.24v-26.81l-.04-.09c-1.45-2.29-2.46-2.64-4.52-2.64v-.91h5.53l18.52,30.01h.04v-25.86c0-2.64-.35-3.24-4.56-3.24v-.91h10.66ZM32.79,165.01c-1.23,0-2.15-.91-2.15-2.03s.92-2.03,2.15-2.03,2.11.86,2.11,2.03-.92,2.03-2.11,2.03ZM34.42,170.63v18.85c0,2.68.31,3.24,2.9,3.24v.91h-8.21v-.91c2.54,0,2.9-.56,2.9-3.24v-14.4c0-2.72,0-3.2-2.46-2.25l-.35-.86,3.2-1.25,1.49-.56.53.48ZM45.49,194.32c-4.56,0-7.15-4.97-7.15-11.76s2.72-12.41,7.77-12.41c3.33,0,5.35,2.42,5.35,5.32,0,1.6-.61,2.46-1.76,2.46-1.05,0-1.49-.74-1.49-1.51,0-.65.31-1.47.31-2.38,0-1.56-.92-2.42-2.46-2.42-3.69,0-5.18,5.06-5.18,10.03,0,5.71,1.93,10.42,5.4,10.42,1.89,0,4.21-1.64,4.96-7.65h.92c-.39,6.96-3.33,9.9-6.67,9.9ZM57.53,175.73v13.75c0,2.68.31,3.24,2.76,3.24v.91h-8.03v-.91c2.5,0,2.85-.56,2.85-3.24l-.04-26.33c0-2.68.09-3.16-2.46-1.99l-.39-.82,3.29-1.51,1.58-.69.44.48v15.65h.13c1.89-2.42,3.64-4.11,6.27-4.11,3.12,0,4.39,2.33,4.39,5.84v13.49c0,2.68.31,3.24,2.85,3.24v.91h-7.99v-.91c2.46,0,2.76-.56,2.76-3.24v-13.36c0-2.64-1.14-3.8-2.9-3.8-2.11,0-3.82,1.43-5.53,3.42ZM85.04,184.51h.92c-.7,6.87-3.55,9.81-7.06,9.81-4.52,0-7.15-4.89-7.15-11.72s2.72-12.45,7.33-12.45c4.21,0,6.63,4.37,6.63,10.81h-11.41v.82c0,5.66,1.93,10.33,5.4,10.33,2.02,0,4.34-1.69,5.35-7.61ZM79.11,171.62c-2.85,0-4.34,3.63-4.74,7.87h8.73c0-3.93-1.05-7.87-3.99-7.87ZM105.69,193.63h-10.88v-.91c4.17,0,4.56-.61,4.56-3.24v-26.29c0-2.64-.39-3.24-4.56-3.24v-.91h10.27c9.57,0,17.24,6.31,17.24,17.6,0,10.51-6.71,16.99-16.63,16.99ZM105.29,192.16c9.78,0,14.13-7.05,14.13-15.35,0-9.77-6.01-16.3-13.95-16.3-1.14,0-2.06.13-2.46.22-.61.13-.92.56-.92,1.17v28.41c0,1.51,1.14,1.86,3.2,1.86ZM137.35,184.51h.92c-.7,6.87-3.55,9.81-7.06,9.81-4.52,0-7.15-4.89-7.15-11.72s2.72-12.45,7.33-12.45c4.21,0,6.63,4.37,6.63,10.81h-11.41v.82c0,5.66,1.93,10.33,5.4,10.33,2.02,0,4.34-1.69,5.35-7.61ZM131.43,171.62c-2.85,0-4.34,3.63-4.74,7.87h8.73c0-3.93-1.05-7.87-3.99-7.87ZM146.98,194.32c-1.93,0-3.47-.86-4.3-1.51-.57-.43-.92-.3-1.14.22l-.31.86h-.88l-.22-9.08h.83c.57,5.45,3.03,8.04,5.84,8.04,2.19,0,3.33-1.64,3.33-4.06,0-2.21-1.01-3.11-5-6.57-3.51-2.98-4.74-4.45-4.74-6.79,0-3.07,2.15-5.27,5.27-5.27,1.84,0,3.07.82,3.77,1.43.57.52,1.01.3,1.1-.22l.18-.91h.88l.09,7.26h-.88c-.35-3.37-2.02-6.1-4.96-6.1-1.89,0-3.25,1.34-3.25,3.33s1.32,3.11,4.17,5.49c3.91,3.29,5.62,5.1,5.62,8.09,0,3.85-2.5,5.79-5.4,5.79ZM157.28,165.01c-1.23,0-2.15-.91-2.15-2.03s.92-2.03,2.15-2.03,2.11.86,2.11,2.03-.92,2.03-2.11,2.03ZM158.91,170.63v18.85c0,2.68.31,3.24,2.9,3.24v.91h-8.21v-.91c2.54,0,2.9-.56,2.9-3.24v-14.4c0-2.72,0-3.2-2.46-2.25l-.35-.86,3.2-1.25,1.49-.56.53.48ZM170.02,190.95h4.52c4.43,0,6.36,1.04,6.36,4.24,0,4.32-4.69,8.65-11.41,8.65-4.21,0-7.94-1.6-7.94-5.23,0-2.77,2.06-4.41,4.39-5.75-1.71-.61-2.33-1.77-2.33-3.16,0-1.69,1.18-3.07,2.85-4.32-1.76-1.47-2.76-3.85-2.76-6.79,0-4.89,2.81-8.39,7.06-8.39,1.45,0,2.72.39,3.77,1.12,1.67-.82,3.33-1.25,4.74-1.25,1.01,0,1.23.43,1.23.99,0,.65-.48,1.08-1.45,1.08-1.49,0-2.54-.35-3.73-.13,1.54,1.47,2.46,3.76,2.46,6.53,0,4.89-2.81,8.34-7.02,8.34-1.32,0-2.5-.35-3.47-.91-1.05.91-1.71,1.69-1.71,2.68,0,1.17.18,2.29,4.43,2.29ZM170.29,171.58c-2.9,0-4.04,2.94-4.04,6.01,0,3.55,1.36,7.91,5,7.91,2.72,0,3.99-2.42,3.99-5.75,0-3.72-1.49-8.17-4.96-8.17ZM170.07,201.8c5.66,0,9.13-3.07,9.13-5.88,0-2.08-1.32-2.55-4.69-2.55h-4.69c-.97,0-1.8-.04-2.5-.17-1.97,1.25-3.64,2.85-3.64,4.67,0,2.08,2.02,3.93,6.41,3.93ZM180.57,193.63v-.91c2.5,0,2.85-.56,2.85-3.24v-14.4c0-2.72.04-3.2-2.54-2.16l-.35-.86,4.74-1.9.57.48v3.63h.13c1.89-2.42,3.64-4.11,6.27-4.11,3.12,0,4.43,2.33,4.43,5.84v13.49c0,2.68.31,3.24,2.81,3.24v.91h-7.99v-.91c2.46,0,2.76-.56,2.76-3.24v-13.36c0-2.59-1.1-3.8-2.9-3.8-2.11,0-3.77,1.43-5.53,3.42v13.75c0,2.68.31,3.24,2.76,3.24v.91h-8.03ZM218.07,194.32c-2.5,0-4.83-1.21-6.49-2.98-.79-.82-1.23-.82-1.45.3l-.35,2.03h-.97l.04-12.5h.97c.31,6.96,3.69,11.67,8.25,11.67,4.17,0,5.92-3.37,5.92-6.31,0-4.41-3.51-7.09-7.2-9.86-3.99-2.98-7.72-5.84-7.72-10.72,0-4.58,3.25-7.61,7.94-7.61,2.24,0,3.91.65,5.53,2.21.7.65,1.32.48,1.4-.43l.18-1.34h.92l.57,11.24h-.92c-.57-5.84-2.98-10.2-7.68-10.2-3.55,0-5.48,2.59-5.48,5.62,0,3.85,2.98,6.27,6.71,9.04,4.17,3.07,8.16,6.1,8.16,11.5,0,4.71-3.25,8.34-8.34,8.34ZM237.89,184.42h1.01c0,6.31-1.05,9.9-4.83,9.9-2.98,0-4.43-1.95-4.43-7.7v-14.27h-3.16v-1.25c3.12-.04,4.3-2.59,4.48-6.31h1.1v6.1h5.35v1.47h-5.31v12.75c0,4.19.22,7.18,2.63,7.18,2.11,0,3.16-2.46,3.16-7.87ZM253.23,194.28l-.57-.48-.09-3.46-.13-.04c-1.36,2.12-3.64,4.02-6.32,4.02-2.85,0-4.17-2.38-4.17-5.79v-13.14c0-2.68,0-3.16-2.63-2.25l-.31-.86,4.91-1.69.48.48v17.17c0,2.68.92,3.98,2.68,3.98,1.93,0,3.99-1.51,5.48-3.37v-13.45c0-2.68,0-3.16-2.63-2.25l-.31-.86,4.91-1.69.48.48v18.29c0,2.72-.04,3.2,2.63,2.08l.35.86-3.47,1.43-1.32.56ZM275.44,191.42l.39.82-4.83,2.08-.61-.52v-3.46h-.18c-1.05,2.38-2.85,3.98-5.48,3.98-4.17,0-6.36-5.02-6.36-11.46,0-6.87,2.54-12.71,7.28-12.71,2.15,0,3.73.86,4.69,2.38h.04v-9.38c0-2.68.09-3.16-2.54-1.99l-.39-.82,4.96-2.21.44.48v30.74c0,2.72-.04,3.2,2.59,2.08ZM265.57,192.16c2.37,0,3.73-1.86,4.83-3.8v-8.6c0-4.67-1.54-7.91-4.43-7.91-3.64,0-4.96,5.06-4.96,10.12,0,5.79,1.4,10.2,4.56,10.2ZM280.27,165.01c-1.23,0-2.15-.91-2.15-2.03s.92-2.03,2.15-2.03,2.11.86,2.11,2.03-.92,2.03-2.11,2.03ZM281.9,170.63v18.85c0,2.68.31,3.24,2.9,3.24v.91h-8.21v-.91c2.54,0,2.9-.56,2.9-3.24v-14.4c0-2.72,0-3.2-2.46-2.25l-.35-.86,3.2-1.25,1.49-.56.53.48ZM294.07,194.32c-4.87,0-8.25-5.19-8.25-11.98s2.98-12.19,8.25-12.19c4.83,0,8.21,5.19,8.21,11.98s-2.98,12.19-8.21,12.19ZM294.64,192.81c3.55,0,5.09-4.45,5.09-8.82,0-5.88-2.06-12.32-6.23-12.32-3.6,0-5.13,4.45-5.13,8.86,0,5.88,2.06,12.28,6.27,12.28Z"/><path class="cls-1" d="M117.84,2.71v3.56c-16.29,0-17.64,2.37-17.64,12.72v121.8h-5.6L24.54,26.29v95.85c0,10.35,1.53,12.72,17.98,12.72v3.56H1.13v-3.56c16.12,0,17.64-2.37,17.64-12.72V16.96l-.17-.34C13.01,7.63,9.1,6.28,1.13,6.28v-3.56h21.37l71.59,117.73h.17V19c0-10.35-1.36-12.72-17.64-12.72v-3.56h41.22Z"/><path class="cls-1" d="M267.92,141.14c-9.67,0-18.66-4.75-25.11-11.71-3.05-3.22-4.75-3.22-5.6,1.19l-1.36,7.97h-3.73l.17-49.03h3.73c1.19,27.31,14.25,45.8,31.89,45.8,16.12,0,22.9-13.23,22.9-24.77,0-17.3-13.57-27.82-27.82-38.68-15.44-11.71-29.86-22.9-29.86-42.07,0-17.98,12.55-29.86,30.7-29.86,8.65,0,15.1,2.54,21.37,8.65,2.71,2.54,5.09,1.87,5.43-1.7l.68-5.26h3.56l2.21,44.11h-3.56c-2.21-22.9-11.54-40.03-29.69-40.03-13.74,0-21.2,10.18-21.2,22.05,0,15.1,11.54,24.6,25.95,35.45,16.12,12.04,31.55,23.92,31.55,45.12,0,18.49-12.55,32.74-32.23,32.74Z"/><path class="cls-1" d="M157.54,2.71h-39.7v3.56c16.12,0,17.64,2.37,17.64,12.72v103.14c0,10.35-1.53,12.72-17.64,12.72v3.56h42.07c38.34,0,64.29-25.45,64.29-66.67,0-44.28-29.69-69.04-66.67-69.04ZM158.39,132.66c-7.97,0-12.38-1.36-12.38-7.29V13.91c0-2.37,1.19-4.07,3.56-4.58,1.53-.34,5.09-.85,9.5-.85,30.7,0,53.95,25.62,53.95,63.95,0,32.57-16.79,60.22-54.62,60.22Z"/></g></svg>