<?xml version="1.0" encoding="UTF-8"?><svg id="Layer_2" xmlns="http://www.w3.org/2000/svg" viewBox="0 0 283.01 261.16"><defs><style>.cls-1{fill:#414042;}</style></defs><g id="Layer_1-2"><path class="cls-1" d="M24.99,261.16c-5.59,0-10.78-2.74-14.5-6.76-1.76-1.86-2.74-1.86-3.23.69l-.78,4.61h-2.16l.1-28.32h2.16c.69,15.78,8.23,26.46,18.42,26.46,9.31,0,13.23-7.64,13.23-14.31,0-10-7.84-16.07-16.07-22.34-8.92-6.76-17.25-13.23-17.25-24.3,0-10.39,7.25-17.25,17.74-17.25,5,0,8.72,1.47,12.35,5,1.57,1.47,2.94,1.08,3.14-.98l.39-3.04h2.06l1.27,25.48h-2.06c-1.27-13.23-6.66-23.13-17.15-23.13-7.94,0-12.25,5.88-12.25,12.74,0,8.72,6.66,14.21,14.99,20.48,9.31,6.96,18.23,13.82,18.23,26.07,0,10.68-7.25,18.91-18.62,18.91Z"/><path class="cls-1" d="M69.26,238.72h2.25c0,14.31-2.35,22.44-10.78,22.44-6.66,0-9.9-4.41-9.9-17.44v-32.34h-7.06v-2.84c6.96-.1,9.6-5.88,10-14.31h2.45v13.82h11.96v3.33h-11.86v28.91c0,9.51.49,16.27,5.88,16.27,4.7,0,7.06-5.59,7.06-17.84Z"/><path class="cls-1" d="M102.51,261.06l-1.27-1.08-.2-7.84-.29-.1c-3.04,4.8-8.13,9.11-14.11,9.11-6.37,0-9.31-5.39-9.31-13.13v-29.79c0-6.08,0-7.15-5.88-5.1l-.69-1.96,10.98-3.82,1.08,1.08v38.91c0,6.08,2.06,9.02,5.98,9.02,4.31,0,8.92-3.43,12.25-7.64v-30.48c0-6.08,0-7.15-5.88-5.1l-.69-1.96,10.98-3.82,1.08,1.08v41.45c0,6.17-.1,7.25,5.88,4.7l.78,1.96-7.74,3.23-2.94,1.27Z"/><path class="cls-1" d="M150.12,254.6c-5.88,2.55-5.78,1.47-5.78-4.7v-69.68l-.98-1.08-11.07,5,.88,1.86c5.88-2.65,5.68-1.57,5.68,4.51v21.27h-.1c-2.16-3.43-5.68-5.39-10.49-5.39-10.58,0-16.27,13.23-16.27,28.81,0,14.6,4.9,25.97,14.21,25.97,5.88,0,9.9-3.63,12.25-9.02h.39v7.84l1.37,1.18,10.78-4.7-.88-1.86ZM138.85,247.64c-2.45,4.41-5.49,8.62-10.78,8.62-7.06,0-10.19-10-10.19-23.13,0-11.47,2.94-22.93,11.07-22.93,6.47,0,9.9,7.35,9.9,17.93v19.5Z"/><path class="cls-1" d="M164.54,207.46v42.73c0,6.08.69,7.35,6.47,7.35v2.06h-18.33v-2.06c5.68,0,6.47-1.27,6.47-7.35v-32.63c0-6.17,0-7.25-5.49-5.1l-.78-1.96,7.15-2.84,3.33-1.27,1.18,1.08Z"/><path class="cls-1" d="M191.72,206.38c-11.76,0-18.42,12.45-18.42,27.64s7.55,27.15,18.42,27.15c11.66,0,18.33-12.45,18.33-27.64s-7.55-27.15-18.33-27.15ZM193,257.73c-9.41,0-14.01-14.5-14.01-27.83,0-10,3.43-20.09,11.47-20.09,9.31,0,13.92,14.6,13.92,27.93,0,9.9-3.43,19.99-11.37,19.99Z"/><path class="cls-1" d="M22.93,88.96H0v2.06c9.31,0,10.19,1.37,10.19,7.35v59.58c0,5.98-.88,7.35-10.19,7.35v2.06h24.3c22.15,0,37.14-14.7,37.14-38.51,0-25.58-17.15-39.89-38.51-39.89ZM23.42,164.03c-4.61,0-7.15-.78-7.15-4.21v-64.39c0-1.37.69-2.35,2.06-2.65.88-.2,2.94-.49,5.49-.49,17.74,0,31.16,14.8,31.16,36.95,0,18.82-9.7,34.79-31.56,34.79Z"/><path class="cls-1" d="M95.03,146.69c-2.25,13.43-7.45,17.25-11.96,17.25-7.74,0-12.05-10.58-12.05-23.42v-1.86h25.48c0-14.6-5.39-24.5-14.8-24.5-10.29,0-16.37,12.64-16.37,28.22s5.88,26.56,15.97,26.56c7.84,0,14.21-6.66,15.78-22.25h-2.06ZM81.8,117.48c6.57,0,8.92,8.92,8.92,17.84h-19.5c.88-9.6,4.21-17.84,10.58-17.84Z"/><path class="cls-1" d="M116.53,168.93c-4.31,0-7.74-1.96-9.6-3.43-1.27-.98-2.06-.69-2.55.49l-.69,1.96h-1.96l-.49-20.58h1.86c1.27,12.35,6.76,18.23,13.03,18.23,4.9,0,7.45-3.72,7.45-9.21,0-5-2.25-7.06-11.17-14.9-7.84-6.76-10.58-10.09-10.58-15.39,0-6.96,4.8-11.96,11.76-11.96,4.12,0,6.86,1.86,8.43,3.23,1.27,1.18,2.25.69,2.45-.49l.39-2.06h1.96l.2,16.46h-1.96c-.78-7.64-4.51-13.82-11.07-13.82-4.21,0-7.25,3.04-7.25,7.55s2.94,7.06,9.31,12.45c8.72,7.45,12.54,11.56,12.54,18.33,0,8.72-5.59,13.13-12.05,13.13Z"/><path class="cls-1" d="M141.54,105.49c-2.74,0-4.8-2.06-4.8-4.61s2.06-4.61,4.8-4.61,4.7,1.96,4.7,4.61-2.06,4.61-4.7,4.61Z"/><path class="cls-1" d="M145.17,115.23v42.73c0,6.08.69,7.35,6.47,7.35v2.06h-18.33v-2.06c5.68,0,6.47-1.27,6.47-7.35v-32.63c0-6.17,0-7.25-5.49-5.1l-.78-1.96,7.15-2.84,3.33-1.27,1.18,1.08Z"/><path class="cls-1" d="M180.09,161.29h-10.09c-9.51,0-9.9-2.55-9.9-5.19,0-2.25,1.47-4.02,3.82-6.08,2.16,1.27,4.8,2.06,7.74,2.06,9.41,0,15.68-7.84,15.68-18.91,0-6.27-2.06-11.47-5.49-14.8,2.65-.49,5,.29,8.33.29,2.16,0,3.23-.98,3.23-2.45,0-1.27-.49-2.25-2.74-2.25-3.14,0-6.86.98-10.58,2.84-2.35-1.67-5.19-2.55-8.43-2.55-9.51,0-15.78,7.94-15.78,19.01,0,6.66,2.25,12.05,6.17,15.39-3.72,2.84-6.37,5.98-6.37,9.8,0,3.14,1.37,5.78,5.19,7.15-5.19,3.04-9.8,6.76-9.8,13.03,0,8.23,8.33,11.86,17.74,11.86,14.99,0,25.48-9.8,25.48-19.6,0-7.25-4.31-9.6-14.21-9.6ZM161.57,131.01c0-6.96,2.55-13.62,9.02-13.62,7.74,0,11.07,10.09,11.07,18.52,0,7.55-2.84,13.03-8.92,13.03-8.13,0-11.17-9.9-11.17-17.93ZM170.1,185.89c-9.8,0-14.31-4.21-14.31-8.92,0-4.12,3.72-7.74,8.13-10.58,1.57.29,3.43.39,5.59.39h10.49c7.55,0,10.49,1.08,10.49,5.78,0,6.37-7.74,13.33-20.38,13.33Z"/><path class="cls-1" d="M196.57,167.36v-2.06c5.59,0,6.37-1.27,6.37-7.35v-32.63c0-6.17.1-7.25-5.68-4.9l-.78-1.96,10.58-4.31,1.27,1.08v8.23h.29c4.21-5.49,8.13-9.31,14.01-9.31,6.96,0,9.9,5.29,9.9,13.23v30.58c0,6.08.69,7.35,6.27,7.35v2.06h-17.84v-2.06c5.49,0,6.17-1.27,6.17-7.35v-30.28c0-5.88-2.45-8.62-6.47-8.62-4.7,0-8.43,3.23-12.35,7.74v31.16c0,6.08.69,7.35,6.17,7.35v2.06h-17.93Z"/><path class="cls-1" d="M68.79,2.06v2.06c-9.41,0-10.19,1.37-10.19,7.35v70.36h-3.23L14.89,15.68v55.37c0,5.98.88,7.35,10.39,7.35v2.06H1.37v-2.06c9.31,0,10.19-1.37,10.19-7.35V10.29l-.1-.2C8.23,4.9,5.97,4.12,1.37,4.12v-2.06h12.35l41.36,68.01h.1V11.47c0-5.98-.78-7.35-10.19-7.35v-2.06h23.81ZM74.06,17.58c-2.74,0-4.8-2.06-4.8-4.61s2.06-4.61,4.8-4.61,4.7,1.96,4.7,4.61-2.06,4.61-4.7,4.61ZM77.68,28.32v42.73c0,6.08.69,7.35,6.47,7.35v2.06h-18.33v-2.06c5.68,0,6.47-1.27,6.47-7.35v-32.63c0-6.17,0-7.25-5.49-5.1l-.78-1.96,7.15-2.84,3.33-1.27,1.18,1.08ZM102.42,82.03c-10.19,0-15.97-11.27-15.97-26.66s6.08-28.13,17.35-28.13c7.45,0,11.96,5.49,11.96,12.05,0,3.63-1.37,5.59-3.92,5.59-2.35,0-3.33-1.67-3.33-3.43,0-1.47.69-3.33.69-5.39,0-3.53-2.06-5.49-5.49-5.49-8.23,0-11.56,11.47-11.56,22.74,0,12.94,4.31,23.62,12.05,23.62,4.21,0,9.41-3.72,11.07-17.35h2.06c-.88,15.78-7.45,22.44-14.9,22.44ZM129.31,39.89v31.16c0,6.08.69,7.35,6.17,7.35v2.06h-17.93v-2.06c5.59,0,6.37-1.27,6.37-7.35l-.1-59.68c0-6.08.2-7.15-5.49-4.51l-.88-1.86,7.35-3.43,3.53-1.57.98,1.08v35.48h.29c4.21-5.49,8.13-9.31,14.01-9.31,6.96,0,9.8,5.29,9.8,13.23v30.58c0,6.08.69,7.35,6.37,7.35v2.06h-17.84v-2.06c5.49,0,6.17-1.27,6.17-7.35v-30.28c0-5.98-2.55-8.62-6.47-8.62-4.7,0-8.53,3.23-12.35,7.74ZM190.74,59.78h2.06c-1.57,15.58-7.94,22.25-15.78,22.25-10.09,0-15.97-11.07-15.97-26.56s6.08-28.22,16.37-28.22c9.41,0,14.8,9.9,14.8,24.5h-25.48v1.86c0,12.84,4.31,23.42,12.05,23.42,4.51,0,9.7-3.82,11.96-17.25ZM177.51,30.58c-6.37,0-9.7,8.23-10.58,17.84h19.5c0-8.92-2.35-17.84-8.92-17.84Z"/></g></svg>