<?xml version="1.0" encoding="UTF-8"?><svg id="Layer_2" xmlns="http://www.w3.org/2000/svg" viewBox="0 0 206.48 187.16"><defs><style>.cls-1,.cls-2{fill:#ffffff;}.cls-2{stroke-width:.34px;}.cls-2,.cls-3{stroke:#414042;stroke-miterlimit:10;}.cls-3{fill:none;stroke-width:3px;}</style></defs><g id="Layer_1-2"><path class="cls-1" d="M92.68,48.15v1.15c-5.25,0-5.68.76-5.68,4.1v39.23h-1.8l-22.57-36.88v30.87c0,3.33.49,4.1,5.79,4.1v1.15h-13.33v-1.15c5.19,0,5.68-.76,5.68-4.1v-33.88l-.05-.11c-1.8-2.9-3.06-3.33-5.63-3.33v-1.15h6.88l23.06,37.92h.05v-32.67c0-3.33-.44-4.1-5.68-4.1v-1.15h13.28Z"/><path class="cls-1" d="M141.02,92.73c-3.11,0-6.01-1.53-8.09-3.77-.98-1.04-1.53-1.04-1.8.38l-.44,2.57h-1.2l.05-15.79h1.2c.38,8.8,4.59,14.75,10.27,14.75,5.19,0,7.38-4.26,7.38-7.98,0-5.57-4.37-8.96-8.96-12.46-4.97-3.77-9.62-7.38-9.62-13.55,0-5.79,4.04-9.62,9.89-9.62,2.79,0,4.86.82,6.88,2.79.87.82,1.64.6,1.75-.55l.22-1.69h1.15l.71,14.21h-1.15c-.71-7.38-3.72-12.89-9.56-12.89-4.43,0-6.83,3.28-6.83,7.1,0,4.86,3.72,7.92,8.36,11.42,5.19,3.88,10.16,7.7,10.16,14.53,0,5.96-4.04,10.55-10.38,10.55Z"/><path class="cls-1" d="M105.46,48.15h-12.79v1.15c5.19,0,5.68.76,5.68,4.1v33.22c0,3.33-.49,4.1-5.68,4.1v1.15h13.55c12.35,0,20.71-8.2,20.71-21.47,0-14.26-9.56-22.24-21.47-22.24ZM105.74,90c-2.57,0-3.99-.44-3.99-2.35v-35.9c0-.76.38-1.31,1.15-1.48.49-.11,1.64-.27,3.06-.27,9.89,0,17.37,8.25,17.37,20.6,0,10.49-5.41,19.4-17.59,19.4Z"/><path class="cls-2" d="M20.77,156.42v.62c-2.88,0-3.11.41-3.11,2.21v21.19h-.99l-12.37-19.92v16.67c0,1.8.27,2.21,3.17,2.21v.62H.17v-.62c2.85,0,3.11-.41,3.11-2.21v-18.3l-.03-.06c-.99-1.56-1.68-1.8-3.08-1.8v-.62h3.77l12.64,20.48h.03v-17.65c0-1.8-.24-2.21-3.11-2.21v-.62h7.28ZM22.38,160.49c-.84,0-1.47-.62-1.47-1.39s.63-1.39,1.47-1.39,1.44.59,1.44,1.39-.63,1.39-1.44,1.39ZM23.49,164.33v12.87c0,1.83.21,2.21,1.98,2.21v.62h-5.6v-.62c1.74,0,1.98-.38,1.98-2.21v-9.83c0-1.86,0-2.18-1.68-1.53l-.24-.59,2.19-.86,1.02-.38.36.32ZM31.05,180.5c-3.11,0-4.88-3.39-4.88-8.03s1.86-8.47,5.3-8.47c2.28,0,3.65,1.65,3.65,3.63,0,1.09-.42,1.68-1.2,1.68-.72,0-1.02-.5-1.02-1.03,0-.44.21-1,.21-1.62,0-1.06-.63-1.65-1.68-1.65-2.52,0-3.53,3.45-3.53,6.85,0,3.9,1.32,7.11,3.68,7.11,1.29,0,2.88-1.12,3.38-5.22h.63c-.27,4.75-2.28,6.76-4.55,6.76ZM39.27,167.81v9.38c0,1.83.21,2.21,1.89,2.21v.62h-5.48v-.62c1.71,0,1.95-.38,1.95-2.21l-.03-17.97c0-1.83.06-2.15-1.68-1.36l-.27-.56,2.25-1.03,1.08-.47.3.32v10.68h.09c1.29-1.65,2.49-2.8,4.28-2.8,2.13,0,2.99,1.59,2.99,3.98v9.21c0,1.83.21,2.21,1.95,2.21v.62h-5.45v-.62c1.68,0,1.89-.38,1.89-2.21v-9.12c0-1.8-.78-2.6-1.98-2.6-1.44,0-2.61.97-3.77,2.33ZM58.04,173.8h.63c-.48,4.69-2.43,6.7-4.82,6.7-3.08,0-4.88-3.33-4.88-8s1.86-8.5,5-8.5c2.88,0,4.52,2.98,4.52,7.38h-7.79v.56c0,3.87,1.32,7.05,3.68,7.05,1.38,0,2.96-1.15,3.65-5.19ZM54,165c-1.95,0-2.96,2.48-3.23,5.37h5.96c0-2.69-.72-5.37-2.73-5.37ZM72.14,180.03h-7.43v-.62c2.85,0,3.11-.41,3.11-2.21v-17.94c0-1.8-.27-2.21-3.11-2.21v-.62h7.01c6.53,0,11.77,4.31,11.77,12.01,0,7.17-4.58,11.6-11.35,11.6ZM71.87,179.02c6.68,0,9.64-4.81,9.64-10.48,0-6.67-4.1-11.13-9.52-11.13-.78,0-1.41.09-1.68.15-.42.09-.63.38-.63.8v19.39c0,1.03.78,1.27,2.19,1.27ZM93.75,173.8h.63c-.48,4.69-2.43,6.7-4.82,6.7-3.08,0-4.88-3.33-4.88-8s1.86-8.5,5-8.5c2.88,0,4.52,2.98,4.52,7.38h-7.79v.56c0,3.87,1.32,7.05,3.68,7.05,1.38,0,2.96-1.15,3.65-5.19ZM89.71,165c-1.95,0-2.96,2.48-3.23,5.37h5.96c0-2.69-.72-5.37-2.73-5.37ZM100.32,180.5c-1.32,0-2.37-.59-2.93-1.03-.39-.3-.63-.21-.78.15l-.21.59h-.6l-.15-6.2h.57c.39,3.72,2.07,5.49,3.98,5.49,1.5,0,2.28-1.12,2.28-2.77,0-1.51-.69-2.12-3.41-4.49-2.4-2.04-3.23-3.04-3.23-4.63,0-2.1,1.47-3.6,3.59-3.6,1.26,0,2.1.56,2.58.97.39.35.69.21.75-.15l.12-.62h.6l.06,4.96h-.6c-.24-2.3-1.38-4.16-3.38-4.16-1.29,0-2.22.91-2.22,2.27s.9,2.12,2.85,3.75c2.67,2.24,3.83,3.48,3.83,5.52,0,2.63-1.71,3.95-3.68,3.95ZM107.35,160.49c-.84,0-1.47-.62-1.47-1.39s.63-1.39,1.47-1.39,1.44.59,1.44,1.39-.63,1.39-1.44,1.39ZM108.46,164.33v12.87c0,1.83.21,2.21,1.98,2.21v.62h-5.6v-.62c1.74,0,1.98-.38,1.98-2.21v-9.83c0-1.86,0-2.18-1.68-1.53l-.24-.59,2.19-.86,1.02-.38.36.32ZM116.05,178.2h3.08c3.02,0,4.34.71,4.34,2.89,0,2.95-3.2,5.9-7.79,5.9-2.88,0-5.42-1.09-5.42-3.57,0-1.89,1.41-3.01,2.99-3.92-1.17-.41-1.59-1.21-1.59-2.15,0-1.15.81-2.1,1.95-2.95-1.2-1-1.89-2.63-1.89-4.63,0-3.33,1.92-5.73,4.82-5.73.99,0,1.86.27,2.58.77,1.14-.56,2.28-.86,3.23-.86.69,0,.84.3.84.68,0,.44-.33.74-.99.74-1.02,0-1.74-.24-2.55-.09,1.05,1,1.68,2.57,1.68,4.46,0,3.33-1.92,5.7-4.79,5.7-.9,0-1.71-.24-2.37-.62-.72.62-1.17,1.15-1.17,1.83,0,.8.12,1.56,3.02,1.56ZM116.23,164.98c-1.98,0-2.76,2.01-2.76,4.1,0,2.42.93,5.4,3.41,5.4,1.86,0,2.73-1.65,2.73-3.92,0-2.54-1.02-5.58-3.38-5.58ZM116.08,185.6c3.86,0,6.23-2.1,6.23-4.01,0-1.42-.9-1.74-3.2-1.74h-3.2c-.66,0-1.23-.03-1.71-.12-1.35.86-2.49,1.95-2.49,3.19,0,1.42,1.38,2.69,4.37,2.69ZM123.25,180.03v-.62c1.71,0,1.95-.38,1.95-2.21v-9.83c0-1.86.03-2.18-1.74-1.48l-.24-.59,3.23-1.3.39.32v2.48h.09c1.29-1.65,2.49-2.8,4.28-2.8,2.13,0,3.02,1.59,3.02,3.98v9.21c0,1.83.21,2.21,1.92,2.21v.62h-5.45v-.62c1.68,0,1.89-.38,1.89-2.21v-9.12c0-1.77-.75-2.6-1.98-2.6-1.44,0-2.58.97-3.77,2.33v9.38c0,1.83.21,2.21,1.89,2.21v.62h-5.48ZM148.84,180.5c-1.71,0-3.29-.83-4.43-2.04-.54-.56-.84-.56-.99.21l-.24,1.39h-.66l.03-8.53h.66c.21,4.75,2.52,7.97,5.63,7.97,2.85,0,4.04-2.3,4.04-4.31,0-3.01-2.4-4.84-4.91-6.73-2.73-2.04-5.27-3.98-5.27-7.32,0-3.13,2.22-5.19,5.42-5.19,1.53,0,2.67.44,3.77,1.51.48.44.9.32.96-.3l.12-.91h.63l.39,7.67h-.63c-.39-3.98-2.04-6.96-5.24-6.96-2.43,0-3.74,1.77-3.74,3.84,0,2.63,2.04,4.28,4.58,6.17,2.85,2.1,5.57,4.16,5.57,7.85,0,3.22-2.22,5.7-5.69,5.7ZM162.37,173.74h.69c0,4.31-.72,6.76-3.29,6.76-2.04,0-3.02-1.33-3.02-5.25v-9.74h-2.16v-.86c2.13-.03,2.94-1.77,3.05-4.31h.75v4.16h3.65v1h-3.62v8.71c0,2.86.15,4.9,1.8,4.9,1.44,0,2.16-1.68,2.16-5.37ZM172.84,180.47l-.39-.32-.06-2.36-.09-.03c-.93,1.45-2.49,2.74-4.31,2.74-1.95,0-2.85-1.62-2.85-3.95v-8.97c0-1.83,0-2.15-1.8-1.53l-.21-.59,3.35-1.15.33.32v11.72c0,1.83.63,2.72,1.83,2.72,1.32,0,2.73-1.03,3.74-2.3v-9.18c0-1.83,0-2.15-1.8-1.53l-.21-.59,3.35-1.15.33.32v12.48c0,1.86-.03,2.18,1.8,1.42l.24.59-2.37.97-.9.38ZM188,178.52l.27.56-3.29,1.42-.42-.35v-2.36h-.12c-.72,1.62-1.95,2.72-3.74,2.72-2.85,0-4.34-3.42-4.34-7.82,0-4.69,1.74-8.68,4.97-8.68,1.47,0,2.55.59,3.2,1.62h.03v-6.4c0-1.83.06-2.15-1.74-1.36l-.27-.56,3.38-1.51.3.32v20.98c0,1.86-.03,2.18,1.77,1.42ZM181.26,179.02c1.62,0,2.55-1.27,3.29-2.6v-5.87c0-3.19-1.05-5.4-3.02-5.4-2.49,0-3.38,3.45-3.38,6.91,0,3.95.96,6.96,3.11,6.96ZM191.3,160.49c-.84,0-1.47-.62-1.47-1.39s.63-1.39,1.47-1.39,1.44.59,1.44,1.39-.63,1.39-1.44,1.39ZM192.41,164.33v12.87c0,1.83.21,2.21,1.98,2.21v.62h-5.6v-.62c1.74,0,1.98-.38,1.98-2.21v-9.83c0-1.86,0-2.18-1.68-1.53l-.24-.59,2.19-.86,1.02-.38.36.32ZM200.71,180.5c-3.32,0-5.63-3.54-5.63-8.17s2.04-8.32,5.63-8.32c3.29,0,5.6,3.54,5.6,8.17s-2.04,8.32-5.6,8.32ZM201.1,179.46c2.43,0,3.47-3.04,3.47-6.02,0-4.01-1.41-8.41-4.25-8.41-2.46,0-3.5,3.04-3.5,6.05,0,4.01,1.41,8.38,4.28,8.38Z"/><circle class="cls-3" cx="103.24" cy="69.12" r="67.62"/></g></svg>