<?xml version="1.0" encoding="UTF-8"?><svg id="Layer_2" xmlns="http://www.w3.org/2000/svg" viewBox="0 0 138.25 138.25"><defs><style>.cls-1{fill:#465566;}.cls-2{fill:none;stroke:#414042;stroke-miterlimit:10;stroke-width:3px;}</style></defs><g id="Layer_1-2"><path class="cls-1" d="M58.56,48.15v1.15c-5.25,0-5.68.76-5.68,4.1v39.23h-1.8l-22.57-36.88v30.87c0,3.33.49,4.1,5.79,4.1v1.15h-13.33v-1.15c5.19,0,5.68-.76,5.68-4.1v-33.88l-.05-.11c-1.8-2.9-3.06-3.33-5.63-3.33v-1.15h6.88l23.06,37.92h.05v-32.67c0-3.33-.44-4.1-5.68-4.1v-1.15h13.28Z"/><path class="cls-1" d="M106.9,92.73c-3.11,0-6.01-1.53-8.09-3.77-.98-1.04-1.53-1.04-1.8.38l-.44,2.57h-1.2l.05-15.79h1.2c.38,8.8,4.59,14.75,10.27,14.75,5.19,0,7.38-4.26,7.38-7.98,0-5.57-4.37-8.96-8.96-12.46-4.97-3.77-9.62-7.38-9.62-13.55,0-5.79,4.04-9.62,9.89-9.62,2.79,0,4.86.82,6.88,2.79.87.82,1.64.6,1.75-.55l.22-1.69h1.15l.71,14.21h-1.15c-.71-7.38-3.72-12.89-9.56-12.89-4.43,0-6.83,3.28-6.83,7.1,0,4.86,3.72,7.92,8.36,11.42,5.19,3.88,10.16,7.7,10.16,14.53,0,5.96-4.04,10.55-10.38,10.55Z"/><path class="cls-1" d="M71.34,48.15h-12.79v1.15c5.19,0,5.68.76,5.68,4.1v33.22c0,3.33-.49,4.1-5.68,4.1v1.15h13.55c12.35,0,20.71-8.2,20.71-21.47,0-14.26-9.56-22.24-21.47-22.24ZM71.62,90c-2.57,0-3.99-.44-3.99-2.35v-35.9c0-.76.38-1.31,1.15-1.48.49-.11,1.64-.27,3.06-.27,9.89,0,17.37,8.25,17.37,20.6,0,10.49-5.41,19.4-17.59,19.4Z"/><circle class="cls-2" cx="69.12" cy="69.12" r="67.62"/></g></svg>