<?xml version="1.0" encoding="UTF-8"?><svg xmlns="http://www.w3.org/2000/svg" viewBox="0 0 134.69 134.69"><g><path fill="#ffffff" d="M67.53,45.87c-1.32,0-2.37.15-2.79.25-.28.06-.64.21-.64.84v34.17c0,1.1.5,1.66,3.22,1.66,11.92,0,16.17-9.24,16.17-17.88,0-11.2-6.56-19.03-15.96-19.03Z"/><path fill="#ffffff" d="M64.69,0C28.96,0,0,28.96,0,64.69s28.96,64.69,64.69,64.69,64.69-28.96,64.69-64.69S100.41,0,64.69,0ZM67.79,85.7h-12.9c-.32,0-.58-.26-.58-.58v-1.09c0-.32.26-.58.58-.58,4.83,0,4.83-.64,4.83-3.32v-31.62c0-2.68,0-3.32-4.83-3.32s-4.83.64-4.83,3.32v37.34c0,.32-.26.58-.58.58h-1.72c-.2,0-.39-.1-.49-.28l-20.41-33.35v27.33c0,2.68,0,3.32,4.93,3.32.32,0,.58.26.58.58v1.09c0,.32-.26.58-.58.58h-12.69c-.32,0-.58-.26-.58-.58v-1.09c0-.32.26-.58.58-.58,4.83,0,4.83-.64,4.83-3.32v-32.11c-1.61-2.58-2.66-2.84-4.83-2.84-.32,0-.58-.26-.58-.58v-1.09c0-.32.26-.58.58-.58h6.55c.2,0,.39.11.49.28l20.93,34.42v-29.12c0-2.68,0-3.32-4.83-3.32-.32,0-.58-.26-.58-.58v-1.09c0-.32.26-.58.58-.58h24.81c12.57,0,21.02,8.74,21.02,21.75s-7.96,21.02-20.29,21.02ZM100.91,86.54c-2.94,0-5.9-1.38-8.12-3.77-.29-.31-.47-.43-.56-.48-.04.08-.11.25-.17.56l-.41,2.43c-.05.28-.29.48-.57.48h-1.14c-.15,0-.3-.06-.41-.17s-.17-.26-.17-.41l.05-15.03c0-.32.26-.58.58-.58h1.14c.31,0,.56.24.58.55.35,7.94,4.13,13.49,9.2,13.49s6.44-4.41,6.44-7.02c0-5.07-4.03-8.15-8.3-11.4-4.61-3.5-9.38-7.11-9.38-13.36,0-5.82,4.02-9.73,9.99-9.73,2.81,0,4.95.87,6.96,2.82.31.29.51.32.53.3.02,0,.12-.12.15-.46l.21-1.63c.04-.29.28-.5.57-.5h1.09c.31,0,.56.24.58.55l.68,13.52c0,.16-.05.31-.16.43s-.26.18-.42.18h-1.09c-.3,0-.55-.23-.58-.52-.42-4.39-2.09-11.75-8.53-11.75-4.09,0-5.92,3.11-5.92,6.18,0,4.26,3.2,7,7.73,10.41,4.87,3.64,9.9,7.4,9.9,14.3,0,6.25-4.3,10.62-10.46,10.62Z"/></g></svg>