<?xml version="1.0" encoding="UTF-8"?><svg id="Layer_2" xmlns="http://www.w3.org/2000/svg" viewBox="0 0 299.02 141.14"><defs><style>.cls-1{fill:#ffffff;}</style></defs><g id="Layer_1-2"><path class="cls-1" d="M116.71,2.71v3.56c-16.29,0-17.64,2.37-17.64,12.72v121.8h-5.6L23.41,26.29v95.85c0,10.35,1.53,12.72,17.98,12.72v3.56H0v-3.56c16.12,0,17.64-2.37,17.64-12.72V16.96l-.17-.34C11.87,7.63,7.97,6.28,0,6.28v-3.56h21.37l71.59,117.73h.17V19c0-10.35-1.36-12.72-17.64-12.72v-3.56h41.22Z"/><path class="cls-1" d="M266.79,141.14c-9.67,0-18.66-4.75-25.11-11.71-3.05-3.22-4.75-3.22-5.6,1.19l-1.36,7.97h-3.73l.17-49.03h3.73c1.19,27.31,14.25,45.8,31.89,45.8,16.12,0,22.9-13.23,22.9-24.77,0-17.3-13.57-27.82-27.82-38.68-15.44-11.71-29.86-22.9-29.86-42.07,0-17.98,12.55-29.86,30.7-29.86,8.65,0,15.1,2.54,21.37,8.65,2.71,2.54,5.09,1.87,5.43-1.7l.68-5.26h3.56l2.21,44.11h-3.56c-2.21-22.9-11.54-40.03-29.69-40.03-13.74,0-21.2,10.18-21.2,22.05,0,15.1,11.54,24.6,25.95,35.45,16.12,12.04,31.55,23.92,31.55,45.12,0,18.49-12.55,32.74-32.23,32.74Z"/><path class="cls-1" d="M156.41,2.71h-39.7v3.56c16.12,0,17.64,2.37,17.64,12.72v103.14c0,10.35-1.53,12.72-17.64,12.72v3.56h42.07c38.34,0,64.29-25.45,64.29-66.67,0-44.28-29.69-69.04-66.67-69.04ZM157.26,132.66c-7.97,0-12.38-1.36-12.38-7.29V13.91c0-2.37,1.19-4.07,3.56-4.58,1.53-.34,5.09-.85,9.5-.85,30.7,0,53.95,25.62,53.95,63.95,0,32.57-16.79,60.22-54.62,60.22Z"/></g></svg>