<?xml version="1.0" encoding="UTF-8"?><svg id="Layer_2" xmlns="http://www.w3.org/2000/svg" viewBox="0 0 849.24 134.69"><defs><style>.cls-1{fill:#465566;}</style></defs><g id="Layer_2-2"><path class="cls-1" d="M70.31,47.75c-1.38,0-2.47.16-2.9.26-.29.06-.67.22-.67.87v35.57c0,1.15.52,1.73,3.35,1.73,12.41,0,16.83-9.62,16.83-18.62,0-11.66-6.83-19.81-16.62-19.81Z"/><path class="cls-1" d="M67.35,0C30.15,0,0,30.15,0,67.35s30.15,67.35,67.35,67.35,67.35-30.15,67.35-67.35S104.54,0,67.35,0ZM70.58,89.23h-13.43c-.33,0-.6-.27-.6-.6v-1.14c0-.33.27-.6.6-.6,5.03,0,5.03-.66,5.03-3.46v-32.92c0-2.8,0-3.46-5.03-3.46s-5.03.66-5.03,3.46v38.88c0,.33-.27.6-.6.6h-1.79c-.21,0-.4-.11-.51-.29l-21.25-34.73v28.46c0,2.8,0,3.46,5.14,3.46.33,0,.6.27.6.6v1.14c0,.33-.27.6-.6.6h-13.21c-.33,0-.6-.27-.6-.6v-1.14c0-.33.27-.6.6-.6,5.03,0,5.03-.66,5.03-3.46v-33.43c-1.68-2.68-2.77-2.96-5.03-2.96-.33,0-.6-.27-.6-.6v-1.14c0-.33.27-.6.6-.6h6.82c.21,0,.41.11.51.29l21.79,35.83v-30.32c0-2.8,0-3.46-5.03-3.46-.33,0-.6-.27-.6-.6v-1.14c0-.33.27-.6.6-.6h25.83c13.09,0,21.88,9.1,21.88,22.64s-8.29,21.88-21.12,21.88ZM105.06,90.09c-3.06,0-6.14-1.43-8.46-3.93-.3-.32-.49-.45-.58-.5-.04.08-.11.26-.17.59l-.43,2.53c-.05.29-.3.5-.59.5h-1.19c-.16,0-.31-.06-.43-.18s-.18-.27-.18-.43l.05-15.65c0-.33.27-.6.6-.6h1.19c.32,0,.59.25.6.58.36,8.27,4.3,14.04,9.58,14.04s6.71-4.59,6.71-7.3c0-5.28-4.2-8.48-8.64-11.87-4.8-3.64-9.77-7.41-9.77-13.91,0-6.06,4.18-10.13,10.4-10.13,2.93,0,5.16.9,7.24,2.93.33.31.53.33.56.32.02,0,.12-.12.16-.48l.22-1.7c.04-.3.3-.52.6-.52h1.14c.32,0,.59.25.6.57l.7,14.08c0,.16-.05.33-.16.45s-.27.19-.44.19h-1.14c-.31,0-.57-.24-.6-.54-.44-4.57-2.18-12.23-8.88-12.23-4.26,0-6.17,3.23-6.17,6.44,0,4.44,3.33,7.29,8.05,10.84,5.07,3.79,10.31,7.71,10.31,14.88,0,6.51-4.48,11.05-10.89,11.05Z"/><path class="cls-1" d="M242.11,22.83v2.06c-9.41,0-10.19,1.37-10.19,7.35v70.36h-3.23l-40.47-66.15v55.37c0,5.98.88,7.35,10.39,7.35v2.06h-23.91v-2.06c9.31,0,10.19-1.37,10.19-7.35V31.07l-.1-.2c-3.23-5.19-5.49-5.98-10.09-5.98v-2.06h12.35l41.36,68.01h.1v-58.6c0-5.98-.78-7.35-10.19-7.35v-2.06h23.81ZM247.38,36.36c-2.74,0-4.8-2.06-4.8-4.61s2.06-4.61,4.8-4.61,4.7,1.96,4.7,4.61-2.06,4.61-4.7,4.61ZM251,49.1v42.73c0,6.08.69,7.35,6.47,7.35v2.06h-18.33v-2.06c5.68,0,6.47-1.27,6.47-7.35v-32.63c0-6.17,0-7.25-5.49-5.1l-.78-1.96,7.15-2.84,3.33-1.27,1.18,1.08ZM275.74,102.8c-10.19,0-15.97-11.27-15.97-26.66s6.08-28.13,17.35-28.13c7.45,0,11.96,5.49,11.96,12.05,0,3.63-1.37,5.59-3.92,5.59-2.35,0-3.33-1.67-3.33-3.43,0-1.47.69-3.33.69-5.39,0-3.53-2.06-5.49-5.49-5.49-8.23,0-11.56,11.47-11.56,22.74,0,12.94,4.31,23.62,12.05,23.62,4.21,0,9.41-3.72,11.07-17.35h2.06c-.88,15.78-7.45,22.44-14.9,22.44ZM302.63,60.66v31.16c0,6.08.69,7.35,6.17,7.35v2.06h-17.93v-2.06c5.59,0,6.37-1.27,6.37-7.35l-.1-59.68c0-6.08.2-7.15-5.49-4.51l-.88-1.86,7.35-3.43,3.53-1.57.98,1.08v35.48h.29c4.21-5.49,8.13-9.31,14.01-9.31,6.96,0,9.8,5.29,9.8,13.23v30.58c0,6.08.69,7.35,6.37,7.35v2.06h-17.84v-2.06c5.49,0,6.17-1.27,6.17-7.35v-30.28c0-5.98-2.55-8.62-6.47-8.62-4.7,0-8.53,3.23-12.35,7.74ZM364.06,80.56h2.06c-1.57,15.58-7.94,22.25-15.78,22.25-10.09,0-15.97-11.07-15.97-26.56s6.08-28.22,16.37-28.22c9.41,0,14.8,9.9,14.8,24.5h-25.48v1.86c0,12.84,4.31,23.42,12.05,23.42,4.51,0,9.7-3.82,11.96-17.25ZM350.83,51.35c-6.37,0-9.7,8.23-10.58,17.84h19.5c0-8.92-2.35-17.84-8.92-17.84ZM410.18,101.23h-24.3v-2.06c9.31,0,10.19-1.37,10.19-7.35v-59.58c0-5.98-.88-7.35-10.19-7.35v-2.06h22.93c21.36,0,38.51,14.31,38.51,39.89,0,23.81-14.99,38.51-37.14,38.51ZM409.3,97.9c21.85,0,31.56-15.97,31.56-34.79,0-22.15-13.43-36.95-31.16-36.95-2.55,0-4.61.29-5.49.49-1.37.29-2.06,1.27-2.06,2.65v64.39c0,3.43,2.55,4.21,7.15,4.21ZM480.9,80.56h2.06c-1.57,15.58-7.94,22.25-15.78,22.25-10.09,0-15.97-11.07-15.97-26.56s6.08-28.22,16.37-28.22c9.41,0,14.8,9.9,14.8,24.5h-25.48v1.86c0,12.84,4.31,23.42,12.05,23.42,4.51,0,9.7-3.82,11.96-17.25ZM467.67,51.35c-6.37,0-9.7,8.23-10.58,17.84h19.5c0-8.92-2.35-17.84-8.92-17.84ZM502.41,102.8c-4.31,0-7.74-1.96-9.6-3.43-1.27-.98-2.06-.69-2.55.49l-.69,1.96h-1.96l-.49-20.58h1.86c1.27,12.35,6.76,18.23,13.03,18.23,4.9,0,7.45-3.72,7.45-9.21,0-5-2.25-7.06-11.17-14.9-7.84-6.76-10.58-10.09-10.58-15.39,0-6.96,4.8-11.96,11.76-11.96,4.12,0,6.86,1.86,8.43,3.23,1.27,1.18,2.25.69,2.45-.49l.39-2.06h1.96l.2,16.46h-1.96c-.78-7.64-4.51-13.82-11.07-13.82-4.21,0-7.25,3.04-7.25,7.55s2.94,7.06,9.31,12.45c8.72,7.45,12.54,11.56,12.54,18.33,0,8.72-5.59,13.13-12.05,13.13ZM525.42,36.36c-2.74,0-4.8-2.06-4.8-4.61s2.06-4.61,4.8-4.61,4.7,1.96,4.7,4.61-2.06,4.61-4.7,4.61ZM529.04,49.1v42.73c0,6.08.69,7.35,6.47,7.35v2.06h-18.33v-2.06c5.68,0,6.47-1.27,6.47-7.35v-32.63c0-6.17,0-7.25-5.49-5.1l-.78-1.96,7.15-2.84,3.33-1.27,1.18,1.08ZM553.87,95.16h10.09c9.9,0,14.21,2.35,14.21,9.6,0,9.8-10.49,19.6-25.48,19.6-9.41,0-17.74-3.63-17.74-11.86,0-6.27,4.61-10,9.8-13.03-3.82-1.37-5.19-4.02-5.19-7.15,0-3.82,2.65-6.96,6.37-9.8-3.92-3.33-6.17-8.72-6.17-15.39,0-11.07,6.27-19.01,15.78-19.01,3.23,0,6.08.88,8.43,2.55,3.72-1.86,7.45-2.84,10.58-2.84,2.25,0,2.74.98,2.74,2.25,0,1.47-1.08,2.45-3.23,2.45-3.33,0-5.68-.78-8.33-.29,3.43,3.33,5.49,8.53,5.49,14.8,0,11.07-6.27,18.91-15.68,18.91-2.94,0-5.59-.78-7.74-2.06-2.35,2.06-3.82,3.82-3.82,6.08,0,2.65.39,5.19,9.9,5.19ZM554.46,51.25c-6.47,0-9.02,6.66-9.02,13.62,0,8.04,3.04,17.93,11.17,17.93,6.08,0,8.92-5.49,8.92-13.03,0-8.43-3.33-18.52-11.07-18.52ZM553.97,119.76c12.64,0,20.38-6.96,20.38-13.33,0-4.7-2.94-5.78-10.49-5.78h-10.49c-2.16,0-4.02-.1-5.59-.39-4.41,2.84-8.13,6.47-8.13,10.58,0,4.7,4.51,8.92,14.31,8.92ZM577.44,101.23v-2.06c5.59,0,6.37-1.27,6.37-7.35v-32.63c0-6.17.1-7.25-5.68-4.9l-.78-1.96,10.58-4.31,1.27,1.08v8.23h.29c4.21-5.49,8.13-9.31,14.01-9.31,6.96,0,9.9,5.29,9.9,13.23v30.58c0,6.08.69,7.35,6.27,7.35v2.06h-17.84v-2.06c5.49,0,6.17-1.27,6.17-7.35v-30.28c0-5.88-2.45-8.62-6.47-8.62-4.7,0-8.43,3.23-12.35,7.74v31.16c0,6.08.69,7.35,6.17,7.35v2.06h-17.93ZM661.18,102.8c-5.59,0-10.78-2.74-14.5-6.76-1.76-1.86-2.74-1.86-3.23.69l-.78,4.61h-2.16l.1-28.32h2.16c.69,15.78,8.23,26.46,18.42,26.46,9.31,0,13.23-7.64,13.23-14.31,0-10-7.84-16.07-16.07-22.34-8.92-6.76-17.25-13.23-17.25-24.3,0-10.39,7.25-17.25,17.74-17.25,5,0,8.72,1.47,12.35,5,1.57,1.47,2.94,1.08,3.14-.98l.39-3.04h2.06l1.27,25.48h-2.06c-1.27-13.23-6.66-23.13-17.15-23.13-7.94,0-12.25,5.88-12.25,12.74,0,8.72,6.66,14.21,14.99,20.48,9.31,6.96,18.23,13.82,18.23,26.07,0,10.68-7.25,18.91-18.62,18.91ZM705.46,80.36h2.25c0,14.31-2.35,22.44-10.78,22.44-6.66,0-9.9-4.41-9.9-17.44v-32.34h-7.06v-2.84c6.96-.1,9.6-5.88,10-14.31h2.45v13.82h11.96v3.33h-11.86v28.91c0,9.51.49,16.27,5.88,16.27,4.7,0,7.06-5.59,7.06-17.84ZM739.7,102.7l-1.27-1.08-.2-7.84-.29-.1c-3.04,4.8-8.13,9.11-14.11,9.11-6.37,0-9.31-5.39-9.31-13.13v-29.79c0-6.08,0-7.15-5.88-5.1l-.69-1.96,10.98-3.82,1.08,1.08v38.91c0,6.08,2.06,9.02,5.98,9.02,4.31,0,8.92-3.43,12.25-7.64v-30.48c0-6.08,0-7.15-5.88-5.1l-.69-1.96,10.98-3.82,1.08,1.08v41.45c0,6.17-.1,7.25,5.88,4.7l.78,1.96-7.74,3.23-2.94,1.27ZM789.31,96.24l.88,1.86-10.78,4.7-1.37-1.18v-7.84h-.39c-2.35,5.39-6.37,9.02-12.25,9.02-9.31,0-14.21-11.37-14.21-25.97,0-15.58,5.68-28.81,16.27-28.81,4.8,0,8.33,1.96,10.49,5.39h.1v-21.27c0-6.08.2-7.15-5.68-4.51l-.88-1.86,11.07-5,.98,1.08v69.68c0,6.17-.1,7.25,5.78,4.7ZM767.26,97.9c5.29,0,8.33-4.21,10.78-8.62v-19.5c0-10.58-3.43-17.93-9.9-17.93-8.13,0-11.07,11.47-11.07,22.93,0,13.13,3.14,23.13,10.19,23.13ZM800.11,36.36c-2.74,0-4.8-2.06-4.8-4.61s2.06-4.61,4.8-4.61,4.7,1.96,4.7,4.61-2.06,4.61-4.7,4.61ZM803.73,49.1v42.73c0,6.08.69,7.35,6.47,7.35v2.06h-18.33v-2.06c5.68,0,6.47-1.27,6.47-7.35v-32.63c0-6.17,0-7.25-5.49-5.1l-.78-1.96,7.15-2.84,3.33-1.27,1.18,1.08ZM830.92,102.8c-10.88,0-18.42-11.76-18.42-27.15s6.66-27.64,18.42-27.64c10.78,0,18.33,11.76,18.33,27.15s-6.66,27.64-18.33,27.64ZM832.19,99.37c7.94,0,11.37-10.09,11.37-19.99,0-13.33-4.61-27.93-13.92-27.93-8.04,0-11.47,10.09-11.47,20.09,0,13.33,4.61,27.83,14.01,27.83Z"/></g></svg>