<?xml version="1.0" encoding="UTF-8"?><svg xmlns="http://www.w3.org/2000/svg" viewBox="0 0 134.69 134.69"><g><path fill="#465566" d="M70.31,47.75c-1.38,0-2.47.16-2.9.26-.29.06-.67.22-.67.87v35.57c0,1.15.52,1.73,3.35,1.73,12.41,0,16.83-9.62,16.83-18.62,0-11.66-6.83-19.81-16.62-19.81Z"/><path fill="#465566" d="M67.35,0C30.15,0,0,30.15,0,67.35s30.15,67.35,67.35,67.35,67.35-30.15,67.35-67.35S104.54,0,67.35,0ZM70.58,89.23h-13.43c-.33,0-.6-.27-.6-.6v-1.14c0-.33.27-.6.6-.6,5.03,0,5.03-.66,5.03-3.46v-32.92c0-2.8,0-3.46-5.03-3.46s-5.03.66-5.03,3.46v38.88c0,.33-.27.6-.6.6h-1.79c-.21,0-.4-.11-.51-.29l-21.25-34.73v28.46c0,2.8,0,3.46,5.14,3.46.33,0,.6.27.6.6v1.14c0,.33-.27.6-.6.6h-13.21c-.33,0-.6-.27-.6-.6v-1.14c0-.33.27-.6.6-.6,5.03,0,5.03-.66,5.03-3.46v-33.43c-1.68-2.68-2.77-2.96-5.03-2.96-.33,0-.6-.27-.6-.6v-1.14c0-.33.27-.6.6-.6h6.82c.21,0,.41.11.51.29l21.79,35.83v-30.32c0-2.8,0-3.46-5.03-3.46-.33,0-.6-.27-.6-.6v-1.14c0-.33.27-.6.6-.6h25.83c13.09,0,21.88,9.1,21.88,22.64s-8.29,21.88-21.12,21.88ZM105.06,90.09c-3.06,0-6.14-1.43-8.46-3.93-.3-.32-.49-.45-.58-.5-.04.08-.11.26-.17.59l-.43,2.53c-.05.29-.3.5-.59.5h-1.19c-.16,0-.31-.06-.43-.18s-.18-.27-.18-.43l.05-15.65c0-.33.27-.6.6-.6h1.19c.32,0,.59.25.6.58.36,8.27,4.3,14.04,9.58,14.04s6.71-4.59,6.71-7.3c0-5.28-4.2-8.48-8.64-11.87-4.8-3.64-9.77-7.41-9.77-13.91,0-6.06,4.18-10.13,10.4-10.13,2.93,0,5.16.9,7.24,2.93.33.31.53.33.56.32.02,0,.12-.12.16-.48l.22-1.7c.04-.3.3-.52.6-.52h1.14c.32,0,.59.25.6.57l.7,14.08c0,.16-.05.33-.16.45s-.27.19-.44.19h-1.14c-.31,0-.57-.24-.6-.54-.44-4.57-2.18-12.23-8.88-12.23-4.26,0-6.17,3.23-6.17,6.44,0,4.44,3.33,7.29,8.05,10.84,5.07,3.79,10.31,7.71,10.31,14.88,0,6.51-4.48,11.05-10.89,11.05Z"/></g></svg>